<svg xmlns="http://www.w3.org/2000/svg" viewBox="0 0 120 120">
  <defs>
    <radialGradient id="glow" cx="50%" cy="50%" r="50%">
      <stop offset="0%" stop-color="#a78bfa" stop-opacity="0.4"/>
      <stop offset="100%" stop-color="#7c3aed" stop-opacity="0"/>
    </radialGradient>
    <radialGradient id="core" cx="50%" cy="50%" r="50%">
      <stop offset="0%" stop-color="#f0b429"/>
      <stop offset="40%" stop-color="#a78bfa"/>
      <stop offset="100%" stop-color="#6d28d9"/>
    </radialGradient>
    <linearGradient id="edge" x1="0%" y1="0%" x2="100%" y2="100%">
      <stop offset="0%" stop-color="#c4b5fd"/>
      <stop offset="100%" stop-color="#7c3aed"/>
    </linearGradient>
  </defs>
  <circle cx="60" cy="60" r="55" fill="url(#glow)"/>
  <polygon points="60,4 116,60 60,116 4,60" fill="none" stroke="url(#edge)" stroke-width="2.5" opacity="0.85"/>
  <polygon points="60,4 68,22 52,22" fill="#7c3aed" opacity="0.9"/>
  <polygon points="116,60 98,52 98,68" fill="#7c3aed" opacity="0.9"/>
  <polygon points="60,116 52,98 68,98" fill="#7c3aed" opacity="0.9"/>
  <polygon points="4,60 22,52 22,68" fill="#7c3aed" opacity="0.9"/>
  <polygon points="60,18 102,60 60,102 18,60" fill="rgba(109,40,217,0.25)" stroke="#a78bfa" stroke-width="1.5" opacity="0.75"/>
  <line x1="60" y1="18" x2="60" y2="42" stroke="#a78bfa" stroke-width="1.5" opacity="0.6"/>
  <line x1="60" y1="78" x2="60" y2="102" stroke="#a78bfa" stroke-width="1.5" opacity="0.6"/>
  <line x1="18" y1="60" x2="42" y2="60" stroke="#a78bfa" stroke-width="1.5" opacity="0.6"/>
  <line x1="78" y1="60" x2="102" y2="60" stroke="#a78bfa" stroke-width="1.5" opacity="0.6"/>
  <line x1="38" y1="38" x2="48" y2="48" stroke="#c4b5fd" stroke-width="1" opacity="0.5"/>
  <line x1="82" y1="38" x2="72" y2="48" stroke="#c4b5fd" stroke-width="1" opacity="0.5"/>
  <line x1="38" y1="82" x2="48" y2="72" stroke="#c4b5fd" stroke-width="1" opacity="0.5"/>
  <line x1="82" y1="82" x2="72" y2="72" stroke="#c4b5fd" stroke-width="1" opacity="0.5"/>
  <circle cx="60" cy="60" r="20" fill="none" stroke="#a78bfa" stroke-width="1.5" opacity="0.5"/>
  <circle cx="60" cy="60" r="14" fill="url(#core)"/>
  <circle cx="60" cy="60" r="9" fill="#6d28d9"/>
  <circle cx="60" cy="60" r="5" fill="#f0b429" opacity="0.95"/>
  <ellipse cx="60" cy="60" rx="5" ry="2.5" fill="#0a0c10" opacity="0.8"/>
  <circle cx="60" cy="60" r="1.5" fill="#f0b429"/>
</svg>
